<svg width="512" height="512" viewBox="0 0 512 512" fill="none" xmlns="http://www.w3.org/2000/svg">
<rect width="512" height="512" fill="#1E293B"/>
<path d="M256 102.4C204.8 102.4 163.84 143.36 163.84 194.56C163.84 225.28 179.2 256 204.8 271.36V194.56H256V307.2C281.6 291.84 307.2 266.24 307.2 235.52C307.2 194.56 281.6 163.84 256 163.84C230.4 163.84 204.8 184.32 204.8 215.04H163.84C163.84 163.84 204.8 122.88 256 122.88C307.2 122.88 348.16 163.84 348.16 215.04C348.16 266.24 307.2 307.2 256 307.2C204.8 307.2 163.84 266.24 163.84 215.04H122.88C122.88 286.72 184.32 348.16 256 348.16C327.68 348.16 389.12 286.72 389.12 215.04C389.12 143.36 327.68 81.92 256 81.92C184.32 81.92 122.88 143.36 122.88 215.04H81.92C81.92 122.88 163.84 40.96 256 40.96C348.16 40.96 430.08 122.88 430.08 215.04C430.08 307.2 348.16 389.12 256 389.12C163.84 389.12 81.92 307.2 81.92 215.04H40.96C40.96 327.68 138.24 424.96 256 424.96C373.76 424.96 471.04 327.68 471.04 215.04C471.04 102.4 373.76 5.12 256 5.12C138.24 5.12 40.96 102.4 40.96 215.04H0V512H512V0H0V215.04H40.96Z" fill="#4FD1C5"/>
</svg>